<svg xmlns="http://www.w3.org/2000/svg" viewBox="0 0 512 512">
  <defs>
    <linearGradient id="bg" x1="0%" y1="0%" x2="100%" y2="100%">
      <stop offset="0%" stop-color="#145374" />
      <stop offset="100%" stop-color="#0e7490" />
    </linearGradient>
  </defs>
  <rect width="512" height="512" rx="116" fill="url(#bg)" />
  <path d="M124 170h264c25.4 0 46 20.6 46 46v80c0 25.4-20.6 46-46 46H124c-25.4 0-46-20.6-46-46v-80c0-25.4 20.6-46 46-46Z" fill="#f7fbff" fill-opacity="0.16" stroke="#f7fbff" stroke-width="18"/>
  <path d="M124 202l132 88 132-88" fill="none" stroke="#f7fbff" stroke-linecap="round" stroke-linejoin="round" stroke-width="22"/>
  <path d="M352 118v62m-31-31h62" fill="none" stroke="#f7fbff" stroke-linecap="round" stroke-width="24"/>
  <path d="M145 385c21-32 59-51 111-51 47 0 85 16 111 51" fill="none" stroke="#f7fbff" stroke-linecap="round" stroke-width="26"/>
</svg>
